<svg xmlns="http://www.w3.org/2000/svg" xmlns:xlink="http://www.w3.org/1999/xlink" width="131" height="20">
    <defs>
        <path id="a" d="M86.881 1.5c.188.024.428.58.375.857-.16 1.261-1.365 2.144-2.703 2.069l-.937-.076c.027 0 .027-.025.027-.05-1.231.15-2.49.277-3.72.479-1.231.202-1.606.908-1.312 2.119.214.908.883 1.261 2.034 1.01 1.044-.228 2.061-.53 3.078-.733.402-.075 1.124-.025 1.231.177.241.505.375 1.16.241 1.716-.053.277-.722.605-1.124.655-1.097.127-2.248.127-3.345.177-1.392.076-1.847.63-1.5 1.917.268.934.59 1.867.91 2.776.376 1.06 1.152 1.488 2.383 1.387 1.23-.1 2.462-.176 3.666-.328 1.553-.176 2.141.303 2.008 1.817-.107 1.236-.536 1.665-1.794 1.589a20.627 20.627 0 0 1-3.506-.53c-2.007-.454-3.96-1.034-5.968-1.539-.803-.202-.91-.68-.803-1.362.16-.934.268-1.867.482-2.775.187-.883.214-1.64-.616-2.346-.535-.48.027-.934.375-1.262 1.231-1.16 1.205-2.598-.107-3.633-.803-.605-.723-1.085.187-1.488 1.98-.908 3.961-1.867 5.969-2.775 1.498-.681 2.997-.126 4.47.151zm-74.905-.142c.332.61-.415.94-.967 1.194-.913.457-1.825.89-2.682 1.397-1.493.89-2.958 1.753-3.898 3.252-1.105 1.779-1.686 3.583-1.133 5.615.055.204.083.407.221.585 1.41 2.032 3.18 3.582 5.943 3.81.996.077 1.99.204 2.958.356.277.051.774.381.747.483-.083.305-.332.686-.636.813-.332.178-.83.153-1.106.203-4.672-.28-8.238-2.083-10.532-5.665-.83-1.245-1.106-2.643-.719-4.269.636-2.667 2.156-4.802 3.98-6.783.581-.635 1.355-.966 2.378-.94 1.272.025 2.543-.305 3.815-.381.553-.026 1.493.025 1.631.33zm49.883-.336c.222.565.444.975.5 1.386.222 2.027.388 4.08.527 6.108.028.488.194.642.75.693 1.414.077 2.857.154 4.245.437.888.18 1.11-.103 1.138-.796.055-1.643.055-3.31.194-4.954.055-.898.305-1.77.472-2.669h.527c.111.462.25.899.305 1.36.222 2.387.389 4.774.583 7.084.694.257 1.332.488 1.97.719v.334c-.555.18-1.082.333-1.776.539.084.924.25 1.925.278 2.926.028 1.206 0 2.412-.083 3.593-.056.795-.583 1.257-1.443 1.283-.944.026-1.416-.36-1.444-1.334-.055-1.823 0-3.645 0-5.442v-.821c-1.692.231-3.357.462-4.911.693v3.901c0 .488 0 .976-.056 1.438-.166 1.103-.75 1.565-1.86 1.54-1.22-.026-1.637-.386-1.775-1.592-.25-2.67.027-5.313.416-7.956.305-1.925.305-3.902.444-5.852.028-.821 0-1.72.999-2.618zM52.792.4c.743.129 1.486.206 2.176.386.239.052.61.413.557.542-.08.283-.318.567-.583.721-.398.207-.876.284-1.327.413-4.192 1.185-6.235 3.943-6.58 7.939-.292 3.118 3.051 6.65 5.89 6.83.955.052 1.91.18 2.839.361.292.052.557.335.85.516-.213.283-.425.824-.664.85-.955.103-1.937.18-2.866 0-3.529-.67-6.314-2.5-8.198-5.516-.876-1.418-.876-3.041-.664-4.588.292-2.01 1.062-3.918 2.495-5.439 1.034-1.134 2.228-2.19 3.82-2.603C51.227.58 52.023.53 52.792.4zm73.76 2.365a243.172 243.172 0 0 1 1.703 4.668c.426 1.212.772 2.45 1.198 3.662.08.232.266.49.479.619.479.283.772.541.32 1.057a.478.478 0 0 0-.054.335c.213 1.186.426 2.373.665 3.559.027.18.16.36.134.516-.134.438-.346.85-.506 1.263-.293-.258-.692-.464-.852-.774a63.324 63.324 0 0 1-1.89-3.79c-.239-.542-.345-.877-1.17-.774-1.065.155-2.156-.026-3.247-.077-1.677-.078-2.874.464-3.513 2.114-.293.8-.878 1.522-1.41 2.218-.16.206-.666.387-.826.284-.24-.155-.452-.593-.399-.826.293-1.108.745-2.166 1.065-3.275a345.514 345.514 0 0 0 1.916-7.04c.293-1.108.399-2.243 1.224-3.171 1.011-1.084 2.262-1.548 3.992-1.677.586-.103.932.464 1.171 1.11zM93.278 1.022c.183.178.471.33.524.56.21 1.118.367 2.237.498 3.356.288 2.542.524 5.085.812 7.628.052.432.183.864.314 1.296.393 1.12 1.52 1.602 2.673 1.17.393-.152.812-.33 1.232-.33.68 0 1.153.305 1.153 1.093 0 .585.104 1.17.21 1.754.13.585-.237.941-1.285.89-.393-.101-1.022-.356-1.677-.483-1.703-.305-3.432-.56-5.135-.839-.656-.127-1.31-.28-1.966-.483-.183-.05-.445-.305-.445-.458 0-.152.236-.381.42-.483.392-.229 1.047-.33 1.204-.66.289-.611.42-1.349.446-2.06.079-1.958.052-3.89.105-5.849.026-1.195.026-2.39.078-3.585.027-.686.158-1.347.315-2.009.052-.203.34-.356.524-.508zm13.885 0c.182.025.493.305.52.509.181.94.311 1.882.39 2.823.285 2.925.545 5.85.83 8.774.157 1.45.624 1.806 2.443 1.908.598.025 1.221.025 1.767.203.883.255 1.689 1.908 1.351 2.722-.104.229-.572.483-.857.483-3.014-.05-5.847-.916-8.705-1.704-.026-.05-.078-.127-.234-.254.156-.28.234-.61.442-.814 1.013-.941 1.17-2.213 1.221-3.46.078-3.077.026-6.18.026-9.257 0-.509.104-1.017.26-1.475.052-.204.364-.458.546-.458zM36.548 2.938a176.82 176.82 0 0 1 2.219 6.305c.347 1.06.427 2.196 1.416 2.972-.427.93.268 1.757.321 2.661.027.698.214 1.37.294 2.041.027.31.027.672-.053.982-.054.233-.294.517-.482.543-.213.026-.534-.181-.641-.388l-.574-1.108c-.476-.926-.934-1.86-1.297-2.82-.321-.8-.535-1.162-1.55-.981-1.738.336-3.53.413-5.293.698-.348.051-.722.49-.936.826-.535.827-.962 1.757-1.524 2.558-.187.259-.748.517-1.015.44-.535-.155-.508-.62-.321-1.137.508-1.396 1.042-2.79 1.443-4.212.588-2.041 1.016-4.134 1.577-6.201.241-.905.455-1.81.883-2.662.721-1.55 2.272-1.783 3.902-1.783 1.043-.18 1.364.543 1.63 1.266zm-13.324-.475c.673.151 1.345.934 1.668 1.565.968 1.893 1.667 3.887 1.371 6.058-.296 2.146-1.264 3.964-2.931 5.403-1.183 1.01-2.743 1.11-4.276 1.085-1.667 0-2.742-.782-3.71-2.045-2.394-3.206-1.695-7.548.242-10.3.026-.05.16-.05.51-.176-.107.606-.188 1.086-.295 1.565-.484 1.944-.565 3.863.699 5.63 1.075 1.54 3.227 1.994 4.894 1.035 1.694-.985 2.608-2.828 2.259-4.67-.162-.808-.296-1.641-.619-2.399-.726-1.64-2.608-2.17-4.222-1.262-.322.126-.645.253-.968.404-.161-.833.78-1.97 1.721-2.02 1.21-.075 2.501-.151 3.657.127zm10.303 6.134c-.534.62-.935 1.318-1.47 2.145 1.604.258 3.02.465 4.678.723-.642-1.06-1.123-1.963-1.71-2.79-.402-.543-1.043-.646-1.498-.078zm89.938-1.293c-.426 1.134-.799 2.27-1.224 3.481 1.517.206 2.927.413 4.657.67-.798-1.598-1.41-2.99-2.156-4.332-.372-.67-1.011-.541-1.277.18z"/>
    </defs>
    <use fill="#000" fill-rule="nonzero" xlink:href="#a"/>
</svg>
